<?xml version="1.0" standalone="no"?>
<!DOCTYPE svg PUBLIC "-//W3C//DTD SVG 20010904//EN"
 "http://www.w3.org/TR/2001/REC-SVG-20010904/DTD/svg10.dtd">
<svg version="1.0" xmlns="http://www.w3.org/2000/svg"
 width="512.000000pt" height="512.000000pt" viewBox="0 0 512.000000 512.000000"
 preserveAspectRatio="xMidYMid meet">
<metadata>
Created by potrace 1.13, written by Peter Selinger 2001-2015
</metadata>
<g transform="translate(0.000000,512.000000) scale(0.100000,-0.100000)"
fill="#000000" stroke="none">
<path d="M2105 5109 c-311 -58 -568 -294 -651 -599 -25 -91 -25 -319 0 -410
61 -228 222 -423 431 -525 135 -66 196 -79 360 -79 165 0 226 13 360 79 566
278 612 1067 82 1413 -165 108 -394 155 -582 121z"/>
<path d="M1221 3125 c-385 -85 -654 -377 -741 -804 -20 -100 -21 -131 -21
-830 0 -399 0 -747 0 -773 l1 -48 320 0 320 0 0 705 0 705 90 0 90 0 0 -705 0
-705 426 0 426 0 -5 22 c-11 44 -117 661 -115 663 2 1 72 42 156 90 83 48 152
92 152 97 0 5 -34 72 -75 149 l-75 140 264 292 c145 161 271 299 280 306 14
12 35 7 151 -39 74 -29 137 -51 140 -48 3 3 25 58 49 124 l44 119 411 5 411 5
-26 50 c-69 130 -188 267 -299 342 -85 57 -151 89 -252 120 l-88 28 -985 2
c-814 1 -996 -1 -1049 -12z"/>
<path d="M3240 2213 c-24 -65 -52 -142 -63 -171 -11 -32 -24 -51 -30 -48 -71
30 -339 136 -346 136 -7 0 -215 -223 -295 -317 -18 -22 -17 -23 68 -185 68
-129 84 -168 78 -186 -5 -17 -55 -51 -172 -118 -91 -52 -169 -100 -173 -106
-7 -11 64 -442 74 -452 2 -3 85 -19 183 -36 175 -31 205 -42 205 -75 0 -5 -12
-96 -27 -202 l-28 -192 198 -105 c110 -58 203 -106 208 -106 5 0 69 54 142
120 93 84 140 120 158 120 19 1 57 -32 165 -145 l140 -146 205 92 c113 50 208
94 211 98 4 3 1 87 -7 186 -18 235 -36 215 221 240 l195 19 10 35 c31 113 100
405 98 413 -2 6 -71 56 -153 111 -109 74 -151 108 -153 125 -2 15 32 79 103
192 l107 169 -138 176 c-75 97 -141 178 -145 181 -5 3 -87 -20 -184 -51 -133
-43 -179 -54 -193 -46 -13 7 -42 74 -88 201 l-69 190 -231 0 -231 0 -43 -117z
m353 -558 c195 -41 352 -205 388 -406 42 -237 -105 -479 -339 -558 -83 -28
-216 -28 -304 -1 -209 64 -348 254 -348 474 0 138 43 248 132 342 128 136 291
187 471 149z"/>
</g>
</svg>
