<?xml version="1.0" standalone="no"?>
<!DOCTYPE svg PUBLIC "-//W3C//DTD SVG 20010904//EN"
 "http://www.w3.org/TR/2001/REC-SVG-20010904/DTD/svg10.dtd">
<svg version="1.0" xmlns="http://www.w3.org/2000/svg"
 width="128.000000pt" height="128.000000pt" viewBox="0 0 128.000000 128.000000"
 preserveAspectRatio="xMidYMid meet">
<metadata>
Created by potrace 1.13, written by Peter Selinger 2001-2015
</metadata>
<g transform="translate(0.000000,128.000000) scale(0.100000,-0.100000)"
fill="#000000" stroke="none">
<path d="M55 813 c77 -40 112 -71 135 -119 15 -30 20 -53 15 -74 l-7 -30 86 0
c101 0 174 -14 237 -46 48 -24 93 -69 104 -104 8 -26 22 -26 30 0 11 35 56 80
104 104 63 32 136 46 237 46 l86 0 -7 30 c-5 21 0 44 15 74 23 48 58 79 135
119 l50 26 -212 1 -212 0 -20 -44 c-16 -37 -26 -46 -58 -55 -75 -21 -92 -13
-94 47 -1 15 -3 20 -6 11 -6 -23 -63 -31 -63 -10 0 14 -1 14 -10 1 -5 -8 -10
-26 -10 -39 0 -23 -2 -23 -47 -17 -61 8 -90 28 -101 69 l-8 32 -215 2 -214 2
50 -26z"/>
</g>
</svg>
