<?xml version="1.0" standalone="no"?>
<!DOCTYPE svg PUBLIC "-//W3C//DTD SVG 20010904//EN"
 "http://www.w3.org/TR/2001/REC-SVG-20010904/DTD/svg10.dtd">
<svg version="1.0" xmlns="http://www.w3.org/2000/svg"
 width="48.000000pt" height="48.000000pt" viewBox="0 0 48.000000 48.000000"
 preserveAspectRatio="xMidYMid meet">
<metadata>
Created by potrace 1.13, written by Peter Selinger 2001-2015
</metadata>
<g transform="translate(0.000000,48.000000) scale(0.100000,-0.100000)"
fill="#000000" stroke="none">
<path d="M51 281 c16 -16 29 -37 29 -45 0 -12 10 -16 40 -16 46 0 94 -21 110
-47 10 -17 10 -17 20 0 16 26 64 47 110 47 30 0 40 4 40 16 0 8 13 29 29 45
l29 29 -64 0 c-51 0 -71 -5 -96 -22 -22 -17 -32 -19 -35 -10 -6 15 -43 16 -43
1 0 -14 -43 0 -53 17 -6 10 -29 14 -77 14 l-68 0 29 -29z"/>
</g>
</svg>
