<?xml version="1.0" standalone="no"?>
<!DOCTYPE svg PUBLIC "-//W3C//DTD SVG 20010904//EN"
 "http://www.w3.org/TR/2001/REC-SVG-20010904/DTD/svg10.dtd">
<svg version="1.0" xmlns="http://www.w3.org/2000/svg"
 width="128.000000pt" height="128.000000pt" viewBox="0 0 128.000000 128.000000"
 preserveAspectRatio="xMidYMid meet">
<metadata>
Created by potrace 1.13, written by Peter Selinger 2001-2015
</metadata>
<g transform="translate(0.000000,128.000000) scale(0.100000,-0.100000)"
fill="#000000" stroke="none">
<path d="M7 1273 c-4 -3 -7 -232 -7 -508 l0 -502 201 -122 c111 -67 208 -120
215 -117 11 4 14 32 14 121 l0 115 191 0 c112 0 198 4 210 10 17 10 19 23 19
154 0 115 -3 146 -15 156 -12 10 -18 10 -30 0 -12 -10 -15 -38 -15 -136 l0
-124 -180 0 -180 0 -2 362 -3 361 -142 87 c-78 47 -145 89 -149 93 -4 4 142 7
324 7 l332 0 0 -172 c0 -95 4 -179 9 -186 5 -8 17 -12 27 -10 18 3 19 16 19
208 l0 205 -416 3 c-228 1 -418 -1 -422 -5z m224 -174 l149 -91 0 -455 c0
-260 -4 -453 -9 -451 -5 2 -79 46 -165 98 l-156 95 0 454 c0 415 1 453 16 447
9 -4 84 -47 165 -97z"/>
<path d="M1051 916 c-17 -20 -5 -39 64 -106 l56 -55 -288 -5 c-272 -5 -288 -6
-291 -24 -2 -10 2 -22 10 -27 7 -5 139 -9 293 -9 l279 0 -68 -69 c-69 -69 -81
-101 -39 -101 22 0 203 179 203 201 0 13 -189 209 -202 209 -3 0 -11 -6 -17
-14z"/>
</g>
</svg>
