<?xml version="1.0" standalone="no"?>
<!DOCTYPE svg PUBLIC "-//W3C//DTD SVG 20010904//EN"
 "http://www.w3.org/TR/2001/REC-SVG-20010904/DTD/svg10.dtd">
<svg version="1.0" xmlns="http://www.w3.org/2000/svg"
 width="512.000000pt" height="512.000000pt" viewBox="0 0 512.000000 512.000000"
 preserveAspectRatio="xMidYMid meet">
<metadata>
Created by potrace 1.13, written by Peter Selinger 2001-2015
</metadata>
<g transform="translate(0.000000,512.000000) scale(0.100000,-0.100000)"
fill="#000000" stroke="none">
<path d="M2350 4415 c-739 -82 -1366 -606 -1580 -1322 -134 -446 -92 -947 112
-1357 290 -582 845 -968 1488 -1036 629 -66 1259 200 1654 698 424 536 523
1263 255 1890 -266 626 -843 1054 -1519 1127 -159 17 -253 17 -410 0z m862
-1396 c12 -74 17 -429 7 -524 -21 -205 -67 -332 -140 -384 -69 -51 -99 -45
-267 50 -78 44 -142 84 -142 89 0 7 259 420 395 630 23 36 59 93 80 128 21 34
43 61 49 59 6 -2 14 -24 18 -48z m-1089 -225 c81 -137 152 -258 158 -269 5
-11 43 -76 83 -145 56 -95 71 -128 63 -137 -26 -25 -245 -132 -283 -139 -75
-11 -150 53 -179 153 -44 150 -56 426 -30 658 8 72 15 132 15 133 0 2 6 2 12
0 7 -3 80 -117 161 -254z"/>
</g>
</svg>
