<?xml version="1.0" standalone="no"?>
<!DOCTYPE svg PUBLIC "-//W3C//DTD SVG 20010904//EN"
 "http://www.w3.org/TR/2001/REC-SVG-20010904/DTD/svg10.dtd">
<svg version="1.0" xmlns="http://www.w3.org/2000/svg"
 width="512.000000pt" height="512.000000pt" viewBox="0 0 512.000000 512.000000"
 preserveAspectRatio="xMidYMid meet">
<metadata>
Created by potrace 1.13, written by Peter Selinger 2001-2015
</metadata>
<g transform="translate(0.000000,512.000000) scale(0.100000,-0.100000)"
fill="#000000" stroke="none">
<path d="M2110 5104 c-45 -19 -1713 -1683 -1741 -1736 -25 -48 -25 -120 1
-172 11 -23 82 -103 162 -183 l143 -143 960 960 960 960 -145 146 c-85 86
-161 154 -185 165 -48 22 -107 24 -155 3z"/>
<path d="M1775 3690 l-820 -820 338 -338 c185 -185 337 -342 337 -347 0 -11
-551 -562 -765 -765 -157 -149 -234 -207 -385 -290 -187 -103 -353 -200 -387
-226 -18 -14 -45 -46 -60 -72 -24 -40 -28 -58 -28 -117 1 -129 78 -259 264
-446 187 -186 317 -263 446 -264 59 0 77 4 117 28 26 15 58 42 72 60 26 34
123 200 226 387 83 151 141 228 290 385 203 214 754 765 765 765 5 0 162 -152
347 -337 l338 -338 823 823 822 822 -955 955 c-525 525 -957 955 -960 955 -3
0 -374 -369 -825 -820z m1610 -510 c98 -98 177 -181 175 -184 -3 -2 -144 -32
-315 -66 -170 -34 -321 -64 -334 -67 -21 -5 -4 -25 165 -194 103 -104 186
-190 184 -192 -3 -2 -277 -18 -610 -36 -333 -17 -621 -34 -640 -37 -54 -7 -32
3 356 166 197 83 360 153 363 156 3 2 -75 85 -173 183 l-178 179 403 135 c222
74 409 136 414 136 6 1 91 -80 190 -179z"/>
<path d="M3827 1632 l-957 -957 148 -147 c88 -88 163 -153 185 -163 50 -21
120 -19 165 4 56 30 1718 1697 1737 1743 19 47 19 99 0 146 -10 22 -73 95
-163 185 -81 81 -149 147 -152 147 -3 0 -436 -431 -963 -958z"/>
</g>
</svg>
